<svg xmlns="http://www.w3.org/2000/svg" viewBox="0 0 558.14 110.48"><defs><style>.cls-1{fill:#fc8181;}.cls-2{fill:#4d3222;}</style></defs><g id="Layer_2" data-name="Layer 2"><g id="logo"><path class="cls-1" d="M272.09,10.93C250.3.91,239,29,239,29s-23.66-18.91-37.67.55,31.3,51.06,52.68,56.31C270.05,70.78,293.87,20.94,272.09,10.93Z"/><path class="cls-2" d="M42.59,7.13A31,31,0,0,1,49.73,8a20.86,20.86,0,0,1,6.7,2.86,16.55,16.55,0,0,1,5,5.19,15,15,0,0,1,2,8A21.32,21.32,0,0,1,61,33.83a40.58,40.58,0,0,1-6.06,8.71,60.88,60.88,0,0,1-8.21,7.51q-4.55,3.47-8.87,6.27a28.79,28.79,0,0,1,5,1.35,19.6,19.6,0,0,1,4.54,2.38,11.43,11.43,0,0,1,3.29,3.57,9.69,9.69,0,0,1,1.25,5,8.61,8.61,0,0,1-2.6,6.22A21.53,21.53,0,0,1,43,79.24a33.85,33.85,0,0,1-7.67,2.54,35.58,35.58,0,0,1-6.92.81,34.34,34.34,0,0,1-5.35-.44,30,30,0,0,1-5.41-1.35,24.41,24.41,0,0,1-5-2.37,15.52,15.52,0,0,1-3.94-3.52,4.15,4.15,0,0,1-1.09-2.48,7.78,7.78,0,0,1-4.37-4A23.32,23.32,0,0,1,1,61.89a50,50,0,0,1-.87-7.3Q0,50.92,0,48.43c0-1.15,0-2.85.11-5.08s.21-4.7.43-7.41.56-5.46,1-8.27A55.58,55.58,0,0,1,3.4,19.94a18.7,18.7,0,0,1,2.87-5.73A5.1,5.1,0,0,1,10.38,12a3.91,3.91,0,0,1,2.75.86A4.35,4.35,0,0,1,14.38,15a11.58,11.58,0,0,1,.32,2.75v2.76c1.8-1.59,3.71-3.17,5.73-4.76a51.52,51.52,0,0,1,6.49-4.32,37,37,0,0,1,7.35-3.14A28.41,28.41,0,0,1,42.59,7.13ZM14.81,68.75a17.53,17.53,0,0,0,6.16,4,21.49,21.49,0,0,0,7.35,1.14,19.75,19.75,0,0,0,2.76-.22,13.2,13.2,0,0,0,3-.75,6.25,6.25,0,0,0,2.33-1.52,3.61,3.61,0,0,0,.91-2.59,2.91,2.91,0,0,0-1.35-2.54,10.47,10.47,0,0,0-3.19-1.41A18.82,18.82,0,0,0,29,64.32c-1.26-.07-2.25-.11-3-.11a11.14,11.14,0,0,0-2.27.22,11.29,11.29,0,0,1-2.16.21,7.56,7.56,0,0,1-3.73-.92,3.52,3.52,0,0,1-1.68-3.4,4.36,4.36,0,0,1,2.27-3.89c1.45-.79,2.85-1.57,4.22-2.33s2.77-1.6,4.22-2.54a68.47,68.47,0,0,0,7.29-5.4A50.42,50.42,0,0,0,41,39.29a36,36,0,0,0,5-8,21.57,21.57,0,0,0,2-9,7.48,7.48,0,0,0-1.35-4.87c-.91-1.08-2.65-1.62-5.25-1.62a19.27,19.27,0,0,0-7.51,1.52,33.13,33.13,0,0,0-6.86,3.89,52.6,52.6,0,0,0-6.22,5.35q-3,3-5.67,5.89,0,6.38.27,12.59t.27,12.6v5.62A19,19,0,0,1,14.81,68.75Z"/><path class="cls-2" d="M85.07,27a16.67,16.67,0,0,1,10.22,3.09,23.89,23.89,0,0,1,6.76,7.78,35.88,35.88,0,0,1,3.72,10.43,56.54,56.54,0,0,1,1.14,11,66.6,66.6,0,0,1-.54,7.83,36,36,0,0,1-2.11,8.6,20.41,20.41,0,0,1-4.32,7,9.54,9.54,0,0,1-7.19,2.86,3.62,3.62,0,0,1-2.92-1.46,4.22,4.22,0,0,1-1-3.29c0-.07,0-.42.16-1s.22-1.26.32-1.94.22-1.36.33-2a9.64,9.64,0,0,0,.16-1.3,42.62,42.62,0,0,1-6.65,5.84A14.5,14.5,0,0,1,74.7,82.8a28,28,0,0,1-6.44-.75,18.62,18.62,0,0,1-5.72-2.38,12.45,12.45,0,0,1-4.11-4.27,12.15,12.15,0,0,1-1.57-6.32A16.91,16.91,0,0,1,60.1,58.81a30.13,30.13,0,0,1,8.11-7.57,43.39,43.39,0,0,1,10.54-4.92A50.29,50.29,0,0,1,89.29,44.1c-.15-.57-.36-1.33-.65-2.27a12.67,12.67,0,0,0-1.24-2.75,10.46,10.46,0,0,0-2-2.38,4,4,0,0,0-2.75-1,7,7,0,0,0-3.63,1.14,22,22,0,0,0-3.73,2.86C74.12,40.83,73,42,71.83,43.29s-2.11,2.4-3,3.41a5.63,5.63,0,0,1-1.51,1.24,3.87,3.87,0,0,1-1.95.49,4.24,4.24,0,0,1-4.32-4.33,6.15,6.15,0,0,1,1.29-3.29,26.34,26.34,0,0,1,3.14-3.73c1.22-1.23,2.47-2.36,3.73-3.41s2.25-1.82,3-2.32a27.08,27.08,0,0,1,5.73-3.08A19.21,19.21,0,0,1,85.07,27ZM74.59,74.16A8.39,8.39,0,0,0,80,71.72a31,31,0,0,0,5.19-5.83,37.5,37.5,0,0,0,3.89-7,16.31,16.31,0,0,0,1.52-6v-.11a22,22,0,0,0-6.54,2,24.17,24.17,0,0,0-6,4,19.85,19.85,0,0,0-4.27,5.57A14.38,14.38,0,0,0,72.21,71a5,5,0,0,0,.43,2.27Q73.08,74.16,74.59,74.16Z"/><path class="cls-2" d="M139.12,32.54a21.07,21.07,0,0,1,9.24,2,23.45,23.45,0,0,1,7.19,5.29,23.78,23.78,0,0,1,4.71,7.73,26.27,26.27,0,0,1,1.67,9.3,26,26,0,0,1-1.62,9.19,22.4,22.4,0,0,1-4.54,7.46,21.4,21.4,0,0,1-7,5,22.18,22.18,0,0,1-9.19,1.84,13.54,13.54,0,0,1-8-2.43,34.8,34.8,0,0,1-6.27-5.68c-.08,2-.11,4-.11,6.05v6.06a4.25,4.25,0,0,1-4.33,4.32,5.24,5.24,0,0,1-2.59-.65,7.28,7.28,0,0,1-2.05-1.62,12.1,12.1,0,0,1-2.06-4.05,44.27,44.27,0,0,1-1.46-6.06q-.6-3.41-1-7.18t-.54-7.3q-.17-3.51-.22-6.54c0-2,0-3.64,0-4.87,0-1.65,0-4,.11-7.13s.25-6.52.54-10.27.73-7.57,1.35-11.46a59.48,59.48,0,0,1,2.59-10.59,25.48,25.48,0,0,1,4.22-7.84A7.77,7.77,0,0,1,125.93,0a4.27,4.27,0,0,1,3.14,1.3,4.28,4.28,0,0,1,1.3,3.13,1.08,1.08,0,0,1-.06.38,1.09,1.09,0,0,0-.05.38q-1.41,8.1-2.16,16.11t-1.3,16.1A17.42,17.42,0,0,1,139.12,32.54Zm-13.4,25.08c.57,1,1.37,2.3,2.38,3.89a45.13,45.13,0,0,0,3.4,4.65,25.63,25.63,0,0,0,4,3.89,6.85,6.85,0,0,0,4.16,1.62A4.32,4.32,0,0,0,143.18,70a13.06,13.06,0,0,0,2.16-4,21.52,21.52,0,0,0,1.08-4.75,37.86,37.86,0,0,0,.27-4.06,40,40,0,0,0-.33-4.59,23.52,23.52,0,0,0-1.24-5.3A13.4,13.4,0,0,0,142.64,43a5.16,5.16,0,0,0-4.06-1.78,7.4,7.4,0,0,0-4.32,1.35,15.84,15.84,0,0,0-3.46,3.29,25.65,25.65,0,0,0-2.65,4.22q-1.14,2.27-1.89,4.11a2.47,2.47,0,0,1-.43.86Z"/><path class="cls-2" d="M210.9,27.35a4.4,4.4,0,0,1,4.16,2.21,9.48,9.48,0,0,1,1.24,4.71,31.1,31.1,0,0,1-.65,5.78Q215,43.46,214,47.4t-2.32,8.11c-.87,2.77-1.75,5.46-2.65,8.05s-1.77,5-2.6,7.3l-2.11,5.78Q201.5,84,198.36,91.78a71.08,71.08,0,0,1-7.68,14.27,21.3,21.3,0,0,1-2.7,3,5.19,5.19,0,0,1-3.67,1.41,4.09,4.09,0,0,1-3.08-1.3,4.37,4.37,0,0,1-1.25-3.13,11.47,11.47,0,0,1,.49-2.17c.32-1.15.74-2.5,1.24-4s1.06-3.23,1.68-5,1.19-3.51,1.73-5.13,1-3.07,1.51-4.33.77-2.14.92-2.64a19.87,19.87,0,0,1-10.43-5.25,38.33,38.33,0,0,1-7.73-10.1,53.71,53.71,0,0,1-4.76-12.27A48,48,0,0,1,163,43.46a25.16,25.16,0,0,1,.32-3.79,15.87,15.87,0,0,1,1.14-3.89,8.56,8.56,0,0,1,2.27-3.08,5.38,5.38,0,0,1,3.62-1.24,4.75,4.75,0,0,1,2.16.43,5.53,5.53,0,0,1,2.71,2.65A22.39,22.39,0,0,1,177,39a46.31,46.31,0,0,1,1.13,4.81c.29,1.59.54,2.88.76,3.89s.49,2.13.81,3.78.72,3.46,1.19,5.41,1,4,1.68,6a42.35,42.35,0,0,0,2.16,5.57,16.78,16.78,0,0,0,2.65,4.1,4.56,4.56,0,0,0,3.08,1.73l6.27-17.72q3.13-8.86,6.59-17.62a42.79,42.79,0,0,0,1.62-4.6,17,17,0,0,1,2-4.38,7.7,7.7,0,0,1,1.62-1.89A3.67,3.67,0,0,1,210.9,27.35Z"/><path class="cls-2" d="M298.81,4.35A15.19,15.19,0,0,1,309,8a31.65,31.65,0,0,1,7.41,9.57,66.68,66.68,0,0,1,5.08,13.19,146.87,146.87,0,0,1,3.19,14.43q1.19,7.13,1.62,13.4c.28,4.18.43,7.57.43,10.16,0,1,0,2.24-.05,3.68a20.22,20.22,0,0,1-.55,4.21,8.41,8.41,0,0,1-1.62,3.46,4,4,0,0,1-3.29,1.41,3.78,3.78,0,0,1-2.87-1.08,6.2,6.2,0,0,1-1.46-2.7,2.87,2.87,0,0,1-.21-1,5.39,5.39,0,0,0-.11-1q-1.2-7.78-2.38-15.4T311.35,45a80.94,80.94,0,0,1-12.59,1.84q-6.43.44-12.81.43-.56,4.11-.81,8.22c-.18,2.74-.27,5.47-.27,8.21v2.22c0,1,0,2,.1,3.08s.15,2.09.22,3a6,6,0,0,0,.43,2,11,11,0,0,1,.49,1.08,3.48,3.48,0,0,1,.16,1.19,4.29,4.29,0,0,1-1.24,3,4,4,0,0,1-3,1.29,5.58,5.58,0,0,1-4.86-2.81,21.84,21.84,0,0,1-2.81-6.54,44.94,44.94,0,0,1-1.3-7.62q-.31-3.88-.32-5.94c0-2.6.18-5.73.54-9.41A111.94,111.94,0,0,1,275,36.94a99.66,99.66,0,0,1,3.13-11.73A48.48,48.48,0,0,1,283,14.72a27,27,0,0,1,6.81-7.51A14.71,14.71,0,0,1,298.81,4.35ZM287.24,38.61q5.52,0,11.14-.43a80.39,80.39,0,0,0,11-1.62c-.07-.36-.3-1.19-.7-2.49s-.86-2.81-1.4-4.54S306.11,26,305.35,24A57.66,57.66,0,0,0,303,18.67a23.7,23.7,0,0,0-2.54-4.05A3.5,3.5,0,0,0,297.84,13a3.33,3.33,0,0,0-2.43,1.57,18.68,18.68,0,0,0-2.33,4A57.74,57.74,0,0,0,291,24c-.65,2-1.23,3.93-1.73,5.83s-.94,3.66-1.3,5.25S287.39,37.82,287.24,38.61Z"/><path class="cls-2" d="M386,27.7a9.57,9.57,0,0,1,5.46,1.56,14,14,0,0,1,3.95,4.11A23,23,0,0,1,398,39.15a54.25,54.25,0,0,1,1.52,6.54q.54,3.3.75,6.38c.15,2.06.22,3.84.22,5.35,0,1.08,0,2.45-.11,4.11s-.22,3.41-.43,5.24a40.71,40.71,0,0,1-1,5.46,22.72,22.72,0,0,1-1.84,4.87,10.61,10.61,0,0,1-2.86,3.51A6.47,6.47,0,0,1,390.15,82,4.45,4.45,0,0,1,387,80.88a6.54,6.54,0,0,1-1.67-2.7,13.34,13.34,0,0,1-.65-3.46c-.07-1.23-.11-2.31-.11-3.24q0-6.39.38-12.71t.38-12.7c0-1.29,0-2.61-.06-3.94a27.24,27.24,0,0,0-.38-4,30,30,0,0,0-3.51,6.87q-1.56,4.16-3.08,8.54c-1,2.91-2,5.69-3.08,8.32a22.28,22.28,0,0,1-3.51,6.21,11.73,11.73,0,0,1-2.33,2,5.25,5.25,0,0,1-3,.82,6.41,6.41,0,0,1-5.84-3.68,18,18,0,0,1-1.84-6.49c-.36-2.81-.64-5.81-.86-9s-.43-6.36-.65-9.46A39.6,39.6,0,0,0,356,34.51a17.14,17.14,0,0,0-1.94,4.59q-1,3.19-1.9,7.3c-.61,2.74-1.2,5.67-1.78,8.81s-1.12,6.16-1.62,9.08-1,5.62-1.35,8.11-.78,4.48-1.14,6a6.72,6.72,0,0,1-.43,1.3,6.2,6.2,0,0,1-1.67,1.68,4.09,4.09,0,0,1-2.22.59,6.79,6.79,0,0,1-4.49-1.57,12.84,12.84,0,0,1-3.19-4.1,28.13,28.13,0,0,1-2.1-5.68,63.49,63.49,0,0,1-1.3-6.27c-.33-2.09-.54-4.07-.65-5.94s-.16-3.43-.16-4.65c0-1.44.07-3.21.22-5.3a25.88,25.88,0,0,1,1.13-6.05,14.28,14.28,0,0,1,2.65-5,5.9,5.9,0,0,1,4.75-2.05,3.75,3.75,0,0,1,2.76.92,5.58,5.58,0,0,1,1.35,2.22,11.21,11.21,0,0,1,.54,2.81,13.6,13.6,0,0,0,.44,2.7c.35-1.59.81-3.48,1.35-5.68A32,32,0,0,1,347.51,32a17.85,17.85,0,0,1,3.62-5.13,7.15,7.15,0,0,1,5.19-2.11,11.34,11.34,0,0,1,7.29,2.27,16.78,16.78,0,0,1,4.6,5.73,26.05,26.05,0,0,1,2.38,7.46,40,40,0,0,1,.54,7.56q.86-2.37,2.16-5.78a49.42,49.42,0,0,1,3.08-6.6A22.08,22.08,0,0,1,380.59,30,7.77,7.77,0,0,1,386,27.7Z"/><path class="cls-2" d="M431.88,27.48q11.24,0,17.89,5.89T456.42,50a35.59,35.59,0,0,1-7.68,21.89,30.13,30.13,0,0,1-8.7,7.46A22,22,0,0,1,429,82.18a21.12,21.12,0,0,1-10.22-2.49A24.26,24.26,0,0,1,411,73a31.31,31.31,0,0,1-4.92-9.4,34.23,34.23,0,0,1-1.73-10.76A26.83,26.83,0,0,1,406.42,42,22.06,22.06,0,0,1,412.26,34,25.82,25.82,0,0,1,421,29.16,34.11,34.11,0,0,1,431.88,27.48ZM420.53,52.77a46.57,46.57,0,0,0,.54,6.87,31,31,0,0,0,1.73,6.7,16.55,16.55,0,0,0,3,5.14,5.76,5.76,0,0,0,4.44,2,6.65,6.65,0,0,0,5-2.43A21.56,21.56,0,0,0,439.07,65a41.31,41.31,0,0,0,2.43-8,41.88,41.88,0,0,0,.86-8.11,25.2,25.2,0,0,0-.43-4.75,11.43,11.43,0,0,0-1.57-4.06,8.33,8.33,0,0,0-3.08-2.86,9.9,9.9,0,0,0-4.86-1.08A10.24,10.24,0,0,0,423,41.42a16.87,16.87,0,0,0-1.89,5.36A33.45,33.45,0,0,0,420.53,52.77Z"/><path class="cls-2" d="M494.79,30.94a21.38,21.38,0,0,1,6.38,1A16,16,0,0,1,506.79,35a15.6,15.6,0,0,1,4,5.3A17.91,17.91,0,0,1,512.3,48a23.69,23.69,0,0,1-.65,5,28.3,28.3,0,0,1-1.89,5.73,16.34,16.34,0,0,1-3.13,4.71,6.07,6.07,0,0,1-4.49,1.94,4.32,4.32,0,0,1-2.59-.7A5.53,5.53,0,0,1,498,63a6.66,6.66,0,0,1-.81-2.32,15.21,15.21,0,0,1-.22-2.6c0-1.08.07-2.65.22-4.7a50.66,50.66,0,0,0,.05-6.16,16.37,16.37,0,0,0-1.08-5.35,3.29,3.29,0,0,0-3.29-2.27,6.31,6.31,0,0,0-4.6,2.43,26.8,26.8,0,0,0-4.11,6.27,76.07,76.07,0,0,0-3.51,8.48c-1.08,3.1-2,6.13-2.86,9.08s-1.52,5.64-2.06,8.06-.95,4.2-1.24,5.35A4.32,4.32,0,0,1,473,81.75a4.23,4.23,0,0,1-2.71,1A6.62,6.62,0,0,1,464.63,80a19.21,19.21,0,0,1-3.08-6.54,36.61,36.61,0,0,1-1.24-7.78q-.22-4-.22-6.49c0-1.44.06-3.28.16-5.51s.35-4.65.71-7.24a73.77,73.77,0,0,1,1.51-7.79,36.57,36.57,0,0,1,2.49-7,16,16,0,0,1,3.78-5.14,7.78,7.78,0,0,1,5.3-2,4.12,4.12,0,0,1,3.08,1.3,4.39,4.39,0,0,1,1.24,3.13,1.35,1.35,0,0,1-.05.38,1.12,1.12,0,0,0-.06.38c-.43,2.6-.83,5.17-1.19,7.73s-.68,5.14-1,7.73a47.42,47.42,0,0,1,2.76-5,21.63,21.63,0,0,1,3.83-4.54,19.06,19.06,0,0,1,5.25-3.35A16.93,16.93,0,0,1,494.79,30.94Z"/><path class="cls-2" d="M548.73,61.85a4.44,4.44,0,0,1,4.33,4.33,7.82,7.82,0,0,1-.49,2.43c-.32,1-.7,2-1.13,2.92A24.07,24.07,0,0,1,550,74.29a17.53,17.53,0,0,1-1.46,2,13.52,13.52,0,0,1-10.81,5.19,23.51,23.51,0,0,1-9.68-2,22.29,22.29,0,0,1-7.46-5.29,23.63,23.63,0,0,1-4.75-7.89,27.83,27.83,0,0,1-1.68-9.73A34.06,34.06,0,0,1,516,45.48a29.19,29.19,0,0,1,5.24-9.41,26,26,0,0,1,8.16-6.48,22.72,22.72,0,0,1,10.49-2.43,26.63,26.63,0,0,1,6.48.81,18.45,18.45,0,0,1,5.9,2.59,13.94,13.94,0,0,1,4.27,4.54,12.69,12.69,0,0,1,1.62,6.54,14.48,14.48,0,0,1-2.76,8.76,25.23,25.23,0,0,1-6.92,6.43,35.29,35.29,0,0,1-9.19,4.11,46.63,46.63,0,0,1-9.56,1.78,33.91,33.91,0,0,0,.86,3.4,13.05,13.05,0,0,0,1.52,3.3,8.94,8.94,0,0,0,2.32,2.49,5.48,5.48,0,0,0,3.3,1c1.87,0,3.19-.57,3.94-1.73a20.4,20.4,0,0,0,2-3.78,31,31,0,0,1,1.78-3.79A3.53,3.53,0,0,1,548.73,61.85Zm-1.4-19.45a5.9,5.9,0,0,0-2.16-4.87,7.49,7.49,0,0,0-4.76-1.73,6.83,6.83,0,0,0-4.87,2,16,16,0,0,0-3.4,4.76,27.08,27.08,0,0,0-2,5.94,42.08,42.08,0,0,0-.92,5.62,39.56,39.56,0,0,0,5.78-1,24.65,24.65,0,0,0,5.95-2.22,16,16,0,0,0,4.59-3.56A7.3,7.3,0,0,0,547.33,42.4Z"/><path class="cls-2" d="M556.85,9.06A4,4,0,0,1,558,11.23a2.38,2.38,0,0,1-.73,2.23,13.61,13.61,0,0,1-3.4,2q-2.58,1.2-5.57,2.38c-2,.8-3.92,1.5-5.78,2.11a31.62,31.62,0,0,1-4,1.12,3,3,0,0,1-2.74-.83,2.33,2.33,0,0,1-.54-2.89,9.32,9.32,0,0,1,1.79-2.6,22.75,22.75,0,0,1,4.13-3.07,32.81,32.81,0,0,1,5.68-2.77,19.85,19.85,0,0,1,5.7-1.28A5.26,5.26,0,0,1,556.85,9.06Z"/></g></g></svg>