<svg width="24" height="24" viewBox="0 0 24 24" fill="none" xmlns="http://www.w3.org/2000/svg">
<g clip-path="url(#clip0_157_90)">
<path d="M4.96863 10.014C4.8713 10.014 4.7833 9.99733 4.70463 9.964C4.6273 9.93067 4.56597 9.88267 4.52063 9.82C4.4753 9.75733 4.45197 9.68333 4.45063 9.598H4.75063C4.75463 9.65533 4.77463 9.70067 4.81063 9.734C4.84797 9.76733 4.89863 9.784 4.96263 9.784C5.02797 9.784 5.0793 9.76867 5.11663 9.738C5.15397 9.706 5.17263 9.66467 5.17263 9.614C5.17263 9.57267 5.15997 9.53867 5.13463 9.512C5.1093 9.48533 5.0773 9.46467 5.03863 9.45C5.0013 9.434 4.9493 9.41667 4.88263 9.398C4.79197 9.37133 4.71797 9.34533 4.66063 9.32C4.60463 9.29333 4.55597 9.254 4.51463 9.202C4.47463 9.14867 4.45463 9.078 4.45463 8.99C4.45463 8.90733 4.4753 8.83533 4.51663 8.774C4.55797 8.71267 4.61597 8.666 4.69063 8.634C4.7653 8.60067 4.85063 8.584 4.94663 8.584C5.09063 8.584 5.2073 8.61933 5.29663 8.69C5.3873 8.75933 5.4373 8.85667 5.44663 8.982H5.13863C5.13597 8.934 5.1153 8.89467 5.07663 8.864C5.0393 8.832 4.9893 8.816 4.92663 8.816C4.87197 8.816 4.82797 8.83 4.79463 8.858C4.76263 8.886 4.74663 8.92667 4.74663 8.98C4.74663 9.01733 4.75863 9.04867 4.78263 9.074C4.80797 9.098 4.83863 9.118 4.87463 9.134C4.91197 9.14867 4.96397 9.166 5.03063 9.186C5.1213 9.21267 5.1953 9.23933 5.25263 9.266C5.30997 9.29267 5.3593 9.33267 5.40063 9.386C5.44197 9.43933 5.46263 9.50933 5.46263 9.596C5.46263 9.67067 5.4433 9.74 5.40463 9.804C5.36597 9.868 5.3093 9.91933 5.23463 9.958C5.15997 9.99533 5.0713 10.014 4.96863 10.014ZM5.63338 9.442C5.63338 9.33 5.65538 9.23067 5.69938 9.144C5.74472 9.05733 5.80538 8.99067 5.88138 8.944C5.95872 8.89733 6.04472 8.874 6.13938 8.874C6.22205 8.874 6.29405 8.89067 6.35538 8.924C6.41805 8.95733 6.46805 8.99933 6.50538 9.05V8.892H6.78738V10H6.50538V9.838C6.46938 9.89 6.41938 9.93333 6.35538 9.968C6.29272 10.0013 6.22005 10.018 6.13738 10.018C6.04405 10.018 5.95872 9.994 5.88138 9.946C5.80538 9.898 5.74472 9.83067 5.69938 9.744C5.65538 9.656 5.63338 9.55533 5.63338 9.442ZM6.50538 9.446C6.50538 9.378 6.49205 9.32 6.46538 9.272C6.43872 9.22267 6.40272 9.18533 6.35738 9.16C6.31205 9.13333 6.26338 9.12 6.21138 9.12C6.15938 9.12 6.11138 9.13267 6.06738 9.158C6.02338 9.18333 5.98738 9.22067 5.95938 9.27C5.93272 9.318 5.91938 9.37533 5.91938 9.442C5.91938 9.50867 5.93272 9.56733 5.95938 9.618C5.98738 9.66733 6.02338 9.70533 6.06738 9.732C6.11272 9.75867 6.16072 9.772 6.21138 9.772C6.26338 9.772 6.31205 9.75933 6.35738 9.734C6.40272 9.70733 6.43872 9.67 6.46538 9.622C6.49205 9.57267 6.50538 9.514 6.50538 9.446ZM8.43685 8.876C8.57285 8.876 8.68218 8.918 8.76485 9.002C8.84885 9.08467 8.89085 9.20067 8.89085 9.35V10H8.61085V9.388C8.61085 9.30133 8.58885 9.23533 8.54485 9.19C8.50085 9.14333 8.44085 9.12 8.36485 9.12C8.28885 9.12 8.22818 9.14333 8.18285 9.19C8.13885 9.23533 8.11685 9.30133 8.11685 9.388V10H7.83685V9.388C7.83685 9.30133 7.81485 9.23533 7.77085 9.19C7.72685 9.14333 7.66685 9.12 7.59085 9.12C7.51352 9.12 7.45218 9.14333 7.40685 9.19C7.36285 9.23533 7.34085 9.30133 7.34085 9.388V10H7.06085V8.892H7.34085V9.026C7.37685 8.97933 7.42285 8.94267 7.47885 8.916C7.53618 8.88933 7.59885 8.876 7.66685 8.876C7.75352 8.876 7.83085 8.89467 7.89885 8.932C7.96685 8.968 8.01952 9.02 8.05685 9.088C8.09285 9.024 8.14485 8.97267 8.21285 8.934C8.28218 8.89533 8.35685 8.876 8.43685 8.876ZM10.1866 9.422C10.1866 9.462 10.1839 9.498 10.1786 9.53H9.36855C9.37522 9.61 9.40322 9.67267 9.45255 9.718C9.50189 9.76333 9.56255 9.786 9.63455 9.786C9.73855 9.786 9.81255 9.74133 9.85655 9.652H10.1586C10.1266 9.75867 10.0652 9.84667 9.97455 9.916C9.88389 9.984 9.77255 10.018 9.64055 10.018C9.53389 10.018 9.43789 9.99467 9.35255 9.948C9.26855 9.9 9.20255 9.83267 9.15455 9.746C9.10789 9.65933 9.08455 9.55933 9.08455 9.446C9.08455 9.33133 9.10789 9.23067 9.15455 9.144C9.20122 9.05733 9.26655 8.99067 9.35055 8.944C9.43455 8.89733 9.53122 8.874 9.64055 8.874C9.74589 8.874 9.83989 8.89667 9.92255 8.942C10.0066 8.98733 10.0712 9.052 10.1166 9.136C10.1632 9.21867 10.1866 9.314 10.1866 9.422ZM9.89655 9.342C9.89522 9.27 9.86922 9.21267 9.81855 9.17C9.76789 9.126 9.70589 9.104 9.63255 9.104C9.56322 9.104 9.50455 9.12533 9.45655 9.168C9.40989 9.20933 9.38122 9.26733 9.37055 9.342H9.89655ZM10.7955 9.442C10.7955 9.33 10.8175 9.23067 10.8615 9.144C10.9068 9.05733 10.9682 8.99067 11.0455 8.944C11.1228 8.89733 11.2088 8.874 11.3035 8.874C11.3755 8.874 11.4442 8.89 11.5095 8.922C11.5748 8.95267 11.6268 8.994 11.6655 9.046V8.52H11.9495V10H11.6655V9.836C11.6308 9.89067 11.5822 9.93467 11.5195 9.968C11.4568 10.0013 11.3842 10.018 11.3015 10.018C11.2082 10.018 11.1228 9.994 11.0455 9.946C10.9682 9.898 10.9068 9.83067 10.8615 9.744C10.8175 9.656 10.7955 9.55533 10.7955 9.442ZM11.6675 9.446C11.6675 9.378 11.6542 9.32 11.6275 9.272C11.6008 9.22267 11.5648 9.18533 11.5195 9.16C11.4742 9.13333 11.4255 9.12 11.3735 9.12C11.3215 9.12 11.2735 9.13267 11.2295 9.158C11.1855 9.18333 11.1495 9.22067 11.1215 9.27C11.0948 9.318 11.0815 9.37533 11.0815 9.442C11.0815 9.50867 11.0948 9.56733 11.1215 9.618C11.1495 9.66733 11.1855 9.70533 11.2295 9.732C11.2748 9.75867 11.3228 9.772 11.3735 9.772C11.4255 9.772 11.4742 9.75933 11.5195 9.734C11.5648 9.70733 11.6008 9.67 11.6275 9.622C11.6542 9.57267 11.6675 9.514 11.6675 9.446ZM12.151 9.442C12.151 9.33 12.173 9.23067 12.217 9.144C12.2623 9.05733 12.323 8.99067 12.399 8.944C12.4763 8.89733 12.5623 8.874 12.657 8.874C12.7396 8.874 12.8116 8.89067 12.873 8.924C12.9356 8.95733 12.9856 8.99933 13.023 9.05V8.892H13.305V10H13.023V9.838C12.987 9.89 12.937 9.93333 12.873 9.968C12.8103 10.0013 12.7376 10.018 12.655 10.018C12.5616 10.018 12.4763 9.994 12.399 9.946C12.323 9.898 12.2623 9.83067 12.217 9.744C12.173 9.656 12.151 9.55533 12.151 9.442ZM13.023 9.446C13.023 9.378 13.0096 9.32 12.983 9.272C12.9563 9.22267 12.9203 9.18533 12.875 9.16C12.8296 9.13333 12.781 9.12 12.729 9.12C12.677 9.12 12.629 9.13267 12.585 9.158C12.541 9.18333 12.505 9.22067 12.477 9.27C12.4503 9.318 12.437 9.37533 12.437 9.442C12.437 9.50867 12.4503 9.56733 12.477 9.618C12.505 9.66733 12.541 9.70533 12.585 9.732C12.6303 9.75867 12.6783 9.772 12.729 9.772C12.781 9.772 12.8296 9.75933 12.875 9.734C12.9203 9.70733 12.9563 9.67 12.983 9.622C13.0096 9.57267 13.023 9.514 13.023 9.446ZM14.6384 8.892L13.9524 10.524H13.6544L13.8944 9.972L13.4504 8.892H13.7644L14.0504 9.666L14.3404 8.892H14.6384ZM6.00979 10.604C6.15646 10.604 6.28512 10.6327 6.39579 10.69C6.50779 10.7473 6.59379 10.8293 6.65379 10.936C6.71512 11.0413 6.74579 11.164 6.74579 11.304C6.74579 11.444 6.71512 11.5667 6.65379 11.672C6.59379 11.776 6.50779 11.8567 6.39579 11.914C6.28512 11.9713 6.15646 12 6.00979 12H5.52179V10.604H6.00979ZM5.99979 11.762C6.14646 11.762 6.25979 11.722 6.33979 11.642C6.41979 11.562 6.45979 11.4493 6.45979 11.304C6.45979 11.1587 6.41979 11.0453 6.33979 10.964C6.25979 10.8813 6.14646 10.84 5.99979 10.84H5.80179V11.762H5.99979ZM7.98538 11.422C7.98538 11.462 7.98272 11.498 7.97738 11.53H7.16738C7.17405 11.61 7.20205 11.6727 7.25138 11.718C7.30072 11.7633 7.36138 11.786 7.43338 11.786C7.53738 11.786 7.61138 11.7413 7.65538 11.652H7.95738C7.92538 11.7587 7.86405 11.8467 7.77338 11.916C7.68272 11.984 7.57138 12.018 7.43938 12.018C7.33272 12.018 7.23672 11.9947 7.15138 11.948C7.06738 11.9 7.00138 11.8327 6.95338 11.746C6.90672 11.6593 6.88338 11.5593 6.88338 11.446C6.88338 11.3313 6.90672 11.2307 6.95338 11.144C7.00005 11.0573 7.06538 10.9907 7.14938 10.944C7.23338 10.8973 7.33005 10.874 7.43938 10.874C7.54472 10.874 7.63872 10.8967 7.72138 10.942C7.80538 10.9873 7.87005 11.052 7.91538 11.136C7.96205 11.2187 7.98538 11.314 7.98538 11.422ZM7.69538 11.342C7.69405 11.27 7.66805 11.2127 7.61738 11.17C7.56672 11.126 7.50472 11.104 7.43138 11.104C7.36205 11.104 7.30338 11.1253 7.25538 11.168C7.20872 11.2093 7.18005 11.2673 7.16938 11.342H7.69538ZM8.46976 10.52V12H8.18976V10.52H8.46976ZM8.8884 10.76C8.83907 10.76 8.79773 10.7447 8.7644 10.714C8.7324 10.682 8.7164 10.6427 8.7164 10.596C8.7164 10.5493 8.7324 10.5107 8.7644 10.48C8.79773 10.448 8.83907 10.432 8.8884 10.432C8.93773 10.432 8.9784 10.448 9.0104 10.48C9.04373 10.5107 9.0604 10.5493 9.0604 10.596C9.0604 10.6427 9.04373 10.682 9.0104 10.714C8.9784 10.7447 8.93773 10.76 8.8884 10.76ZM9.0264 10.892V12H8.7464V10.892H9.0264ZM9.76504 11.742L10.045 10.892H10.343L9.93304 12H9.59304L9.18504 10.892H9.48504L9.76504 11.742ZM11.5303 11.422C11.5303 11.462 11.5276 11.498 11.5223 11.53H10.7123C10.719 11.61 10.747 11.6727 10.7963 11.718C10.8456 11.7633 10.9063 11.786 10.9783 11.786C11.0823 11.786 11.1563 11.7413 11.2003 11.652H11.5023C11.4703 11.7587 11.409 11.8467 11.3183 11.916C11.2276 11.984 11.1163 12.018 10.9843 12.018C10.8776 12.018 10.7816 11.9947 10.6963 11.948C10.6123 11.9 10.5463 11.8327 10.4983 11.746C10.4516 11.6593 10.4283 11.5593 10.4283 11.446C10.4283 11.3313 10.4516 11.2307 10.4983 11.144C10.545 11.0573 10.6103 10.9907 10.6943 10.944C10.7783 10.8973 10.875 10.874 10.9843 10.874C11.0896 10.874 11.1836 10.8967 11.2663 10.942C11.3503 10.9873 11.415 11.052 11.4603 11.136C11.507 11.2187 11.5303 11.314 11.5303 11.422ZM11.2403 11.342C11.239 11.27 11.213 11.2127 11.1623 11.17C11.1116 11.126 11.0496 11.104 10.9763 11.104C10.907 11.104 10.8483 11.1253 10.8003 11.168C10.7536 11.2093 10.725 11.2673 10.7143 11.342H11.2403ZM12.0147 11.064C12.0507 11.0053 12.0973 10.9593 12.1547 10.926C12.2133 10.8927 12.28 10.876 12.3547 10.876V11.17H12.2807C12.1927 11.17 12.126 11.1907 12.0807 11.232C12.0367 11.2733 12.0147 11.3453 12.0147 11.448V12H11.7347V10.892H12.0147V11.064ZM13.6033 10.892L12.9173 12.524H12.6193L12.8593 11.972L12.4153 10.892H12.7293L13.0153 11.666L13.3053 10.892H13.6033Z" fill="black"/>
<path fill-rule="evenodd" clip-rule="evenodd" d="M17.6156 7.68425L15.9399 7.67311V5.28603C15.9399 4.93165 15.8024 4.6107 15.5802 4.37667C15.3581 4.14487 15.0534 4 14.717 4H3.57515C3.23874 4 2.93406 4.14487 2.7119 4.3789C2.49186 4.6107 2.35221 4.93388 2.35221 5.28826C2.35221 5.48217 2.50032 5.63596 2.68228 5.63596C2.86635 5.63596 3.01446 5.47994 3.01446 5.28826C3.01446 5.12556 3.07793 4.97845 3.17949 4.87147C3.28105 4.76449 3.42069 4.69762 3.57515 4.69762H14.717C14.8693 4.69762 15.0111 4.76449 15.1126 4.87147C15.2142 4.97845 15.2777 5.12556 15.2777 5.28826V16.2095H13.4094C13.2253 16.2095 13.0772 16.3655 13.0772 16.5594C13.0772 16.7533 13.2253 16.9094 13.4094 16.9094H15.6077C15.7918 16.9094 15.9399 16.7533 15.9399 16.5594V16.1627H17.2771C17.4294 12.5319 22.3783 12.0305 22.8819 16.1627H23.9694C24.2487 12.6233 22.5899 11.2459 20.0657 10.9361C19.8838 10.1048 19.5389 9.33358 19.1475 8.57132C18.6799 7.66419 18.572 7.69985 17.6156 7.68425ZM-0.633189 9.51189C-0.838423 9.51189 -1.00557 9.35587 -1.00557 9.16419C-1.00557 8.97251 -0.838423 8.81426 -0.633189 8.81426H2.98061C3.18584 8.81426 3.35299 8.97028 3.35299 9.16419C3.35299 9.3581 3.18584 9.51189 2.98061 9.51189H-0.633189ZM-1.65724 11.3997C-2.11425 11.3997 -2.11425 10.6976 -1.65724 10.6976H2.48339C2.75845 10.6976 2.97849 10.8559 2.97849 11.0475C2.97849 11.2415 2.75633 11.3975 2.48339 11.3975H-1.65724V11.3997ZM6.58806 16.2073C6.77213 16.2073 6.92024 16.3633 6.92024 16.555C6.92024 16.7489 6.77213 16.9049 6.58806 16.9049H3.57515C3.24085 16.9049 2.93618 16.7511 2.7119 16.5082C2.49186 16.2652 2.35221 15.9354 2.35221 15.5832V13.0201C2.35221 12.8262 2.50032 12.6701 2.68228 12.6701C2.86635 12.6701 3.01446 12.8262 3.01446 13.0201V15.5832C3.01446 15.7504 3.08005 15.9108 3.18584 16.0267C3.2874 16.1382 3.42281 16.2073 3.57092 16.2073H6.58806ZM9.9543 14.2749C8.71656 14.2749 7.71155 15.3336 7.71155 16.6374C7.71155 17.9413 8.71656 19 9.9543 19C11.1921 19 12.1971 17.9413 12.1971 16.6374C12.1971 15.3336 11.1942 14.2749 9.9543 14.2749ZM9.9543 15.7303C9.47825 15.7303 9.09105 16.136 9.09105 16.6397C9.09105 17.1412 9.47613 17.549 9.9543 17.549C10.4304 17.549 10.8176 17.1434 10.8176 16.6397C10.8154 16.136 10.4304 15.7303 9.9543 15.7303ZM20.0721 13.9272C18.8343 13.9272 17.8293 14.9859 17.8293 16.2897C17.8293 17.5936 18.8343 18.6523 20.0721 18.6523C21.3098 18.6523 22.3148 17.5936 22.3148 16.2897C22.3148 14.9859 21.3119 13.9272 20.0721 13.9272ZM19.211 16.292C19.211 16.7935 19.596 17.2013 20.0742 17.2013C20.5503 17.2013 20.9375 16.7957 20.9375 16.292C20.9375 15.7883 20.5524 15.3826 20.0742 15.3826C19.596 15.3826 19.211 15.7905 19.211 16.292ZM17.7764 8.69391L16.7651 8.67385V10.9383H18.9063C18.6418 10.1293 18.2525 9.3893 17.7764 8.69391Z" fill="#FC8181"/>
<path fill-rule="evenodd" clip-rule="evenodd" d="M0.719498 7.62182C0.503302 7.62182 0.327225 7.4658 0.327225 7.27412C0.327225 7.08021 0.503302 6.92419 0.719498 6.92419H4.02485C4.24104 6.92419 4.41712 7.08021 4.41712 7.27412C4.41712 7.46803 4.24104 7.62182 4.02485 7.62182H0.719498Z" fill="black"/>
</g>
<defs>
<clipPath id="clip0_157_90">
<rect width="24" height="24" fill="white"/>
</clipPath>
</defs>
</svg>
