<svg width="728" height="546" viewBox="0 0 728 546" fill="none" xmlns="http://www.w3.org/2000/svg">
<path d="M3.05176e-05 384.273C3.05176e-05 405.683 8.52224 426.216 23.6919 441.356C38.8615 456.495 59.4358 465 80.8889 465H647.111C668.564 465 689.139 456.495 704.308 441.356C719.478 426.216 728 405.683 728 384.273V323.727C728 302.317 719.478 281.784 704.308 266.644C689.139 251.505 668.564 243 647.111 243H80.8889C59.4358 243 38.8615 251.505 23.6919 266.644C8.52224 281.784 3.05176e-05 302.317 3.05176e-05 323.727V384.273Z" fill="#FFC0C0"/>
<path d="M343 101.231L362.838 81H583.199C646.947 81 667.211 121.462 667.211 121.462L728 242.017V344H343V101.231Z" fill="black"/>
<path d="M545 243H687L646.429 161.667C646.429 161.667 626.143 121 585.571 121H545V243Z" fill="#FC8181"/>
<path d="M545.5 546C501.041 546 465 509.735 465 465C465 420.265 501.041 384 545.5 384C589.959 384 626 420.265 626 465C626 509.735 589.959 546 545.5 546Z" fill="#292F33"/>
<path d="M545.5 506C523.132 506 505 487.868 505 465.5C505 443.132 523.132 425 545.5 425C567.868 425 586 443.132 586 465.5C586 487.868 567.868 506 545.5 506Z" fill="#CCD6DD"/>
<path d="M181.5 546C137.041 546 101 509.735 101 465C101 420.265 137.041 384 181.5 384C225.959 384 262 420.265 262 465C262 509.735 225.959 546 181.5 546Z" fill="#292F33"/>
<path d="M181.5 506C159.132 506 141 487.868 141 465.5C141 443.132 159.132 425 181.5 425C203.868 425 222 443.132 222 465.5C222 487.868 203.868 506 181.5 506Z" fill="#CCD6DD"/>
<path d="M80.8696 0H384.13C405.578 0 426.148 8.5277 441.314 23.7071C456.48 38.8865 465 59.4742 465 80.9412V344H-1.52588e-05V80.9412C-1.52588e-05 59.4742 8.52016 38.8865 23.6861 23.7071C38.8521 8.5277 59.4216 0 80.8696 0Z" fill="#FC8181"/>
<path d="M125.206 124.588C118.318 124.588 112.662 122.964 108.238 119.716C103.814 116.412 101.434 111.708 101.098 105.604H118.654C118.822 107.676 119.438 109.188 120.502 110.14C121.566 111.092 122.938 111.568 124.618 111.568C126.13 111.568 127.362 111.204 128.314 110.476C129.322 109.692 129.826 108.628 129.826 107.284C129.826 105.548 129.014 104.204 127.39 103.252C125.766 102.3 123.134 101.236 119.494 100.06C115.63 98.772 112.494 97.54 110.086 96.364C107.734 95.132 105.662 93.368 103.87 91.072C102.134 88.72 101.266 85.668 101.266 81.916C101.266 78.108 102.218 74.86 104.122 72.172C106.026 69.428 108.658 67.356 112.018 65.956C115.378 64.556 119.186 63.856 123.442 63.856C130.33 63.856 135.818 65.48 139.906 68.728C144.05 71.92 146.262 76.428 146.542 82.252H128.65C128.594 80.46 128.034 79.116 126.97 78.22C125.962 77.324 124.646 76.876 123.022 76.876C121.79 76.876 120.782 77.24 119.998 77.968C119.214 78.696 118.822 79.732 118.822 81.076C118.822 82.196 119.242 83.176 120.082 84.016C120.978 84.8 122.07 85.5 123.358 86.116C124.646 86.676 126.55 87.404 129.07 88.3C132.822 89.588 135.902 90.876 138.31 92.164C140.774 93.396 142.874 95.16 144.61 97.456C146.402 99.696 147.298 102.552 147.298 106.024C147.298 109.552 146.402 112.716 144.61 115.516C142.874 118.316 140.326 120.528 136.966 122.152C133.662 123.776 129.742 124.588 125.206 124.588ZM152.264 100.396C152.264 95.524 153.132 91.268 154.868 87.628C156.66 83.988 159.068 81.188 162.092 79.228C165.172 77.268 168.588 76.288 172.34 76.288C175.588 76.288 178.388 76.932 180.74 78.22C183.092 79.508 184.912 81.244 186.2 83.428V76.876H202.664V124H186.2V117.448C184.912 119.632 183.064 121.368 180.656 122.656C178.304 123.944 175.532 124.588 172.34 124.588C168.588 124.588 165.172 123.608 162.092 121.648C159.068 119.688 156.66 116.888 154.868 113.248C153.132 109.552 152.264 105.268 152.264 100.396ZM186.2 100.396C186.2 97.372 185.36 94.992 183.68 93.256C182.056 91.52 180.04 90.652 177.632 90.652C175.168 90.652 173.124 91.52 171.5 93.256C169.876 94.936 169.064 97.316 169.064 100.396C169.064 103.42 169.876 105.828 171.5 107.62C173.124 109.356 175.168 110.224 177.632 110.224C180.04 110.224 182.056 109.356 183.68 107.62C185.36 105.884 186.2 103.476 186.2 100.396ZM273.618 76.456C279.554 76.456 284.202 78.248 287.562 81.832C290.978 85.416 292.686 90.316 292.686 96.532V124H276.222V98.716C276.222 96.196 275.522 94.236 274.122 92.836C272.722 91.436 270.818 90.736 268.41 90.736C266.002 90.736 264.098 91.436 262.698 92.836C261.298 94.236 260.598 96.196 260.598 98.716V124H244.134V98.716C244.134 96.196 243.434 94.236 242.034 92.836C240.69 91.436 238.814 90.736 236.406 90.736C233.942 90.736 232.01 91.436 230.61 92.836C229.21 94.236 228.51 96.196 228.51 98.716V124H212.046V76.876H228.51V83.092C229.966 81.076 231.842 79.48 234.138 78.304C236.49 77.072 239.178 76.456 242.202 76.456C245.674 76.456 248.754 77.212 251.442 78.724C254.186 80.236 256.342 82.364 257.91 85.108C259.59 82.532 261.802 80.46 264.546 78.892C267.29 77.268 270.314 76.456 273.618 76.456ZM346.73 99.892C346.73 101.18 346.646 102.468 346.478 103.756H315.314C315.482 106.332 316.182 108.264 317.414 109.552C318.702 110.784 320.326 111.4 322.286 111.4C325.03 111.4 326.99 110.168 328.166 107.704H345.722C344.994 110.952 343.566 113.864 341.438 116.44C339.366 118.96 336.734 120.948 333.542 122.404C330.35 123.86 326.822 124.588 322.958 124.588C318.31 124.588 314.166 123.608 310.526 121.648C306.942 119.688 304.114 116.888 302.042 113.248C300.026 109.608 299.018 105.324 299.018 100.396C299.018 95.468 300.026 91.212 302.042 87.628C304.058 83.988 306.858 81.188 310.442 79.228C314.082 77.268 318.254 76.288 322.958 76.288C327.606 76.288 331.722 77.24 335.306 79.144C338.89 81.048 341.69 83.792 343.706 87.376C345.722 90.904 346.73 95.076 346.73 99.892ZM329.93 95.776C329.93 93.76 329.258 92.192 327.914 91.072C326.57 89.896 324.89 89.308 322.874 89.308C320.858 89.308 319.206 89.868 317.918 90.988C316.63 92.052 315.79 93.648 315.398 95.776H329.93ZM148.901 184.396C148.901 179.524 149.769 175.268 151.505 171.628C153.297 167.988 155.733 165.188 158.813 163.228C161.893 161.268 165.309 160.288 169.061 160.288C172.085 160.288 174.773 160.932 177.125 162.22C179.533 163.452 181.409 165.16 182.753 167.344V145.84H199.301V208H182.753V201.448C181.465 203.632 179.645 205.368 177.293 206.656C174.941 207.944 172.169 208.588 168.977 208.588C165.225 208.588 161.809 207.608 158.729 205.648C155.705 203.688 153.297 200.888 151.505 197.248C149.769 193.552 148.901 189.268 148.901 184.396ZM182.837 184.396C182.837 181.372 181.997 178.992 180.317 177.256C178.693 175.52 176.677 174.652 174.269 174.652C171.805 174.652 169.761 175.52 168.137 177.256C166.513 178.936 165.701 181.316 165.701 184.396C165.701 187.42 166.513 189.828 168.137 191.62C169.761 193.356 171.805 194.224 174.269 194.224C176.677 194.224 178.693 193.356 180.317 191.62C181.997 189.884 182.837 187.476 182.837 184.396ZM205.995 184.396C205.995 179.524 206.863 175.268 208.599 171.628C210.391 167.988 212.799 165.188 215.823 163.228C218.903 161.268 222.319 160.288 226.071 160.288C229.319 160.288 232.119 160.932 234.471 162.22C236.823 163.508 238.643 165.244 239.931 167.428V160.876H256.395V208H239.931V201.448C238.643 203.632 236.795 205.368 234.387 206.656C232.035 207.944 229.263 208.588 226.071 208.588C222.319 208.588 218.903 207.608 215.823 205.648C212.799 203.688 210.391 200.888 208.599 197.248C206.863 193.552 205.995 189.268 205.995 184.396ZM239.931 184.396C239.931 181.372 239.091 178.992 237.411 177.256C235.787 175.52 233.771 174.652 231.363 174.652C228.899 174.652 226.855 175.52 225.231 177.256C223.607 178.936 222.795 181.316 222.795 184.396C222.795 187.42 223.607 189.828 225.231 191.62C226.855 193.356 228.899 194.224 231.363 194.224C233.771 194.224 235.787 193.356 237.411 191.62C239.091 189.884 239.931 187.476 239.931 184.396ZM316.512 160.876L286.608 230.428H268.716L279.972 205.984L260.652 160.876H278.964L288.876 187.588L298.452 160.876H316.512ZM77.5716 231.78C83.7876 231.78 89.2196 233.04 93.8676 235.56C98.5716 238.024 102.184 241.496 104.704 245.976C107.224 250.456 108.484 255.58 108.484 261.348C108.484 267.06 107.196 272.156 104.62 276.636C102.1 281.116 98.4876 284.644 93.7836 287.22C89.1356 289.74 83.7316 291 77.5716 291H54.1356V231.78H77.5716ZM76.3116 276.468C81.1276 276.468 84.9076 275.152 87.6516 272.52C90.3956 269.888 91.7676 266.164 91.7676 261.348C91.7676 256.476 90.3956 252.724 87.6516 250.092C84.9076 247.404 81.1276 246.06 76.3116 246.06H70.5996V276.468H76.3116ZM160.929 266.892C160.929 268.18 160.845 269.468 160.677 270.756H129.513C129.681 273.332 130.381 275.264 131.613 276.552C132.901 277.784 134.525 278.4 136.485 278.4C139.229 278.4 141.189 277.168 142.365 274.704H159.921C159.193 277.952 157.765 280.864 155.637 283.44C153.565 285.96 150.933 287.948 147.741 289.404C144.549 290.86 141.021 291.588 137.157 291.588C132.509 291.588 128.365 290.608 124.725 288.648C121.141 286.688 118.313 283.888 116.241 280.248C114.225 276.608 113.217 272.324 113.217 267.396C113.217 262.468 114.225 258.212 116.241 254.628C118.257 250.988 121.057 248.188 124.641 246.228C128.281 244.268 132.453 243.288 137.157 243.288C141.805 243.288 145.921 244.24 149.505 246.144C153.089 248.048 155.889 250.792 157.905 254.376C159.921 257.904 160.929 262.076 160.929 266.892ZM144.129 262.776C144.129 260.76 143.457 259.192 142.113 258.072C140.769 256.896 139.089 256.308 137.073 256.308C135.057 256.308 133.405 256.868 132.117 257.988C130.829 259.052 129.989 260.648 129.597 262.776H144.129ZM184.131 228.84V291H167.667V228.84H184.131ZM201.823 239.508C198.911 239.508 196.559 238.724 194.767 237.156C193.031 235.532 192.163 233.516 192.163 231.108C192.163 228.644 193.031 226.6 194.767 224.976C196.559 223.352 198.911 222.54 201.823 222.54C204.679 222.54 206.975 223.352 208.711 224.976C210.503 226.6 211.399 228.644 211.399 231.108C211.399 233.516 210.503 235.532 208.711 237.156C206.975 238.724 204.679 239.508 201.823 239.508ZM209.971 243.876V291H193.507V243.876H209.971ZM241.943 275.46L250.763 243.876H268.319L252.107 291H231.611L215.399 243.876H232.955L241.943 275.46ZM318.921 266.892C318.921 268.18 318.837 269.468 318.669 270.756H287.505C287.673 273.332 288.373 275.264 289.605 276.552C290.893 277.784 292.517 278.4 294.477 278.4C297.221 278.4 299.181 277.168 300.357 274.704H317.913C317.185 277.952 315.757 280.864 313.629 283.44C311.557 285.96 308.925 287.948 305.733 289.404C302.541 290.86 299.013 291.588 295.149 291.588C290.501 291.588 286.357 290.608 282.717 288.648C279.133 286.688 276.305 283.888 274.233 280.248C272.217 276.608 271.209 272.324 271.209 267.396C271.209 262.468 272.217 258.212 274.233 254.628C276.249 250.988 279.049 248.188 282.633 246.228C286.273 244.268 290.445 243.288 295.149 243.288C299.797 243.288 303.913 244.24 307.497 246.144C311.081 248.048 313.881 250.792 315.897 254.376C317.913 257.904 318.921 262.076 318.921 266.892ZM302.121 262.776C302.121 260.76 301.449 259.192 300.105 258.072C298.761 256.896 297.081 256.308 295.065 256.308C293.049 256.308 291.397 256.868 290.109 257.988C288.821 259.052 287.981 260.648 287.589 262.776H302.121ZM342.123 252.192C343.971 249.504 346.211 247.376 348.843 245.808C351.475 244.24 354.303 243.456 357.327 243.456V261.012H352.707C349.123 261.012 346.463 261.712 344.727 263.112C342.991 264.512 342.123 266.948 342.123 270.42V291H325.659V243.876H342.123V252.192ZM413.965 243.876L384.061 313.428H366.169L377.425 288.984L358.105 243.876H376.417L386.329 270.588L395.905 243.876H413.965Z" fill="white"/>
</svg>
