<svg width="512" height="512" viewBox="0 0 512 512" fill="none" xmlns="http://www.w3.org/2000/svg">
<g clip-path="url(#clip0_157_90)">
<rect x="105" y="130" width="170" height="48" fill="#FC8181"/>
<rect x="129" y="187" width="129" height="48" fill="#FC8181"/>
<rect x="74" y="243" width="239" height="50" fill="#FC8181"/>
<path d="M127.168 171.378C122.74 171.378 119.104 170.334 116.26 168.246C113.416 166.122 111.886 163.098 111.67 159.174H122.956C123.064 160.506 123.46 161.478 124.144 162.09C124.828 162.702 125.71 163.008 126.79 163.008C127.762 163.008 128.554 162.774 129.166 162.306C129.814 161.802 130.138 161.118 130.138 160.254C130.138 159.138 129.616 158.274 128.572 157.662C127.528 157.05 125.836 156.366 123.496 155.61C121.012 154.782 118.996 153.99 117.448 153.234C115.936 152.442 114.604 151.308 113.452 149.832C112.336 148.32 111.778 146.358 111.778 143.946C111.778 141.498 112.39 139.41 113.614 137.682C114.838 135.918 116.53 134.586 118.69 133.686C120.85 132.786 123.298 132.336 126.034 132.336C130.462 132.336 133.99 133.38 136.618 135.468C139.282 137.52 140.704 140.418 140.884 144.162H129.382C129.346 143.01 128.986 142.146 128.302 141.57C127.654 140.994 126.808 140.706 125.764 140.706C124.972 140.706 124.324 140.94 123.82 141.408C123.316 141.876 123.064 142.542 123.064 143.406C123.064 144.126 123.334 144.756 123.874 145.296C124.45 145.8 125.152 146.25 125.98 146.646C126.808 147.006 128.032 147.474 129.652 148.05C132.064 148.878 134.044 149.706 135.592 150.534C137.176 151.326 138.526 152.46 139.642 153.936C140.794 155.376 141.37 157.212 141.37 159.444C141.37 161.712 140.794 163.746 139.642 165.546C138.526 167.346 136.888 168.768 134.728 169.812C132.604 170.856 130.084 171.378 127.168 171.378ZM144.563 155.826C144.563 152.694 145.121 149.958 146.237 147.618C147.389 145.278 148.937 143.478 150.881 142.218C152.861 140.958 155.057 140.328 157.469 140.328C159.557 140.328 161.357 140.742 162.869 141.57C164.381 142.398 165.551 143.514 166.379 144.918V140.706H176.963V171H166.379V166.788C165.551 168.192 164.363 169.308 162.815 170.136C161.303 170.964 159.521 171.378 157.469 171.378C155.057 171.378 152.861 170.748 150.881 169.488C148.937 168.228 147.389 166.428 146.237 164.088C145.121 161.712 144.563 158.958 144.563 155.826ZM166.379 155.826C166.379 153.882 165.839 152.352 164.759 151.236C163.715 150.12 162.419 149.562 160.871 149.562C159.287 149.562 157.973 150.12 156.929 151.236C155.885 152.316 155.363 153.846 155.363 155.826C155.363 157.77 155.885 159.318 156.929 160.47C157.973 161.586 159.287 162.144 160.871 162.144C162.419 162.144 163.715 161.586 164.759 160.47C165.839 159.354 166.379 157.806 166.379 155.826ZM222.576 140.436C226.392 140.436 229.38 141.588 231.54 143.892C233.736 146.196 234.834 149.346 234.834 153.342V171H224.25V154.746C224.25 153.126 223.8 151.866 222.9 150.966C222 150.066 220.776 149.616 219.228 149.616C217.68 149.616 216.456 150.066 215.556 150.966C214.656 151.866 214.206 153.126 214.206 154.746V171H203.622V154.746C203.622 153.126 203.172 151.866 202.272 150.966C201.408 150.066 200.202 149.616 198.654 149.616C197.07 149.616 195.828 150.066 194.928 150.966C194.028 151.866 193.578 153.126 193.578 154.746V171H182.994V140.706H193.578V144.702C194.514 143.406 195.72 142.38 197.196 141.624C198.708 140.832 200.436 140.436 202.38 140.436C204.612 140.436 206.592 140.922 208.32 141.894C210.084 142.866 211.47 144.234 212.478 145.998C213.558 144.342 214.98 143.01 216.744 142.002C218.508 140.958 220.452 140.436 222.576 140.436ZM269.576 155.502C269.576 156.33 269.522 157.158 269.414 157.986H249.38C249.488 159.642 249.938 160.884 250.73 161.712C251.558 162.504 252.602 162.9 253.862 162.9C255.626 162.9 256.886 162.108 257.642 160.524H268.928C268.46 162.612 267.542 164.484 266.174 166.14C264.842 167.76 263.15 169.038 261.098 169.974C259.046 170.91 256.778 171.378 254.294 171.378C251.306 171.378 248.642 170.748 246.302 169.488C243.998 168.228 242.18 166.428 240.848 164.088C239.552 161.748 238.904 158.994 238.904 155.826C238.904 152.658 239.552 149.922 240.848 147.618C242.144 145.278 243.944 143.478 246.248 142.218C248.588 140.958 251.27 140.328 254.294 140.328C257.282 140.328 259.928 140.94 262.232 142.164C264.536 143.388 266.336 145.152 267.632 147.456C268.928 149.724 269.576 152.406 269.576 155.502ZM258.776 152.856C258.776 151.56 258.344 150.552 257.48 149.832C256.616 149.076 255.536 148.698 254.24 148.698C252.944 148.698 251.882 149.058 251.054 149.778C250.226 150.462 249.686 151.488 249.434 152.856H258.776ZM142.4 212.826C142.4 209.694 142.958 206.958 144.074 204.618C145.226 202.278 146.792 200.478 148.772 199.218C150.752 197.958 152.948 197.328 155.36 197.328C157.304 197.328 159.032 197.742 160.544 198.57C162.092 199.362 163.298 200.46 164.162 201.864V188.04H174.8V228H164.162V223.788C163.334 225.192 162.164 226.308 160.652 227.136C159.14 227.964 157.358 228.378 155.306 228.378C152.894 228.378 150.698 227.748 148.718 226.488C146.774 225.228 145.226 223.428 144.074 221.088C142.958 218.712 142.4 215.958 142.4 212.826ZM164.216 212.826C164.216 210.882 163.676 209.352 162.596 208.236C161.552 207.12 160.256 206.562 158.708 206.562C157.124 206.562 155.81 207.12 154.766 208.236C153.722 209.316 153.2 210.846 153.2 212.826C153.2 214.77 153.722 216.318 154.766 217.47C155.81 218.586 157.124 219.144 158.708 219.144C160.256 219.144 161.552 218.586 162.596 217.47C163.676 216.354 164.216 214.806 164.216 212.826ZM179.104 212.826C179.104 209.694 179.662 206.958 180.778 204.618C181.93 202.278 183.478 200.478 185.422 199.218C187.402 197.958 189.598 197.328 192.01 197.328C194.098 197.328 195.898 197.742 197.41 198.57C198.922 199.398 200.092 200.514 200.92 201.918V197.706H211.504V228H200.92V223.788C200.092 225.192 198.904 226.308 197.356 227.136C195.844 227.964 194.062 228.378 192.01 228.378C189.598 228.378 187.402 227.748 185.422 226.488C183.478 225.228 181.93 223.428 180.778 221.088C179.662 218.712 179.104 215.958 179.104 212.826ZM200.92 212.826C200.92 210.882 200.38 209.352 199.3 208.236C198.256 207.12 196.96 206.562 195.412 206.562C193.828 206.562 192.514 207.12 191.47 208.236C190.426 209.316 189.904 210.846 189.904 212.826C189.904 214.77 190.426 216.318 191.47 217.47C192.514 218.586 193.828 219.144 195.412 219.144C196.96 219.144 198.256 218.586 199.3 217.47C200.38 216.354 200.92 214.806 200.92 212.826ZM250.151 197.706L230.927 242.418H219.425L226.661 226.704L214.241 197.706H226.013L232.385 214.878L238.541 197.706H250.151ZM96.5461 247.93C100.542 247.93 104.034 248.74 107.022 250.36C110.046 251.944 112.368 254.176 113.988 257.056C115.608 259.936 116.418 263.23 116.418 266.938C116.418 270.61 115.59 273.886 113.934 276.766C112.314 279.646 109.992 281.914 106.968 283.57C103.98 285.19 100.506 286 96.5461 286H81.4801V247.93H96.5461ZM95.7361 276.658C98.8321 276.658 101.262 275.812 103.026 274.12C104.79 272.428 105.672 270.034 105.672 266.938C105.672 263.806 104.79 261.394 103.026 259.702C101.262 257.974 98.8321 257.11 95.7361 257.11H92.0641V276.658H95.7361ZM150.133 270.502C150.133 271.33 150.079 272.158 149.971 272.986H129.937C130.045 274.642 130.495 275.884 131.287 276.712C132.115 277.504 133.159 277.9 134.419 277.9C136.183 277.9 137.443 277.108 138.199 275.524H149.485C149.017 277.612 148.099 279.484 146.731 281.14C145.399 282.76 143.707 284.038 141.655 284.974C139.603 285.91 137.335 286.378 134.851 286.378C131.863 286.378 129.199 285.748 126.859 284.488C124.555 283.228 122.737 281.428 121.405 279.088C120.109 276.748 119.461 273.994 119.461 270.826C119.461 267.658 120.109 264.922 121.405 262.618C122.701 260.278 124.501 258.478 126.805 257.218C129.145 255.958 131.827 255.328 134.851 255.328C137.839 255.328 140.485 255.94 142.789 257.164C145.093 258.388 146.893 260.152 148.189 262.456C149.485 264.724 150.133 267.406 150.133 270.502ZM139.333 267.856C139.333 266.56 138.901 265.552 138.037 264.832C137.173 264.076 136.093 263.698 134.797 263.698C133.501 263.698 132.439 264.058 131.611 264.778C130.783 265.462 130.243 266.488 129.991 267.856H139.333ZM165.048 246.04V286H154.464V246.04H165.048ZM176.422 252.898C174.55 252.898 173.038 252.394 171.886 251.386C170.77 250.342 170.212 249.046 170.212 247.498C170.212 245.914 170.77 244.6 171.886 243.556C173.038 242.512 174.55 241.99 176.422 241.99C178.258 241.99 179.734 242.512 180.85 243.556C182.002 244.6 182.578 245.914 182.578 247.498C182.578 249.046 182.002 250.342 180.85 251.386C179.734 252.394 178.258 252.898 176.422 252.898ZM181.66 255.706V286H171.076V255.706H181.66ZM202.213 276.01L207.883 255.706H219.169L208.747 286H195.571L185.149 255.706H196.435L202.213 276.01ZM251.699 270.502C251.699 271.33 251.645 272.158 251.537 272.986H231.503C231.611 274.642 232.061 275.884 232.853 276.712C233.681 277.504 234.725 277.9 235.985 277.9C237.749 277.9 239.009 277.108 239.765 275.524H251.051C250.583 277.612 249.665 279.484 248.297 281.14C246.965 282.76 245.273 284.038 243.221 284.974C241.169 285.91 238.901 286.378 236.417 286.378C233.429 286.378 230.765 285.748 228.425 284.488C226.121 283.228 224.303 281.428 222.971 279.088C221.675 276.748 221.027 273.994 221.027 270.826C221.027 267.658 221.675 264.922 222.971 262.618C224.267 260.278 226.067 258.478 228.371 257.218C230.711 255.958 233.393 255.328 236.417 255.328C239.405 255.328 242.051 255.94 244.355 257.164C246.659 258.388 248.459 260.152 249.755 262.456C251.051 264.724 251.699 267.406 251.699 270.502ZM240.899 267.856C240.899 266.56 240.467 265.552 239.603 264.832C238.739 264.076 237.659 263.698 236.363 263.698C235.067 263.698 234.005 264.058 233.177 264.778C232.349 265.462 231.809 266.488 231.557 267.856H240.899ZM266.615 261.052C267.803 259.324 269.243 257.956 270.935 256.948C272.627 255.94 274.445 255.436 276.389 255.436V266.722H273.419C271.115 266.722 269.405 267.172 268.289 268.072C267.173 268.972 266.615 270.538 266.615 272.77V286H256.031V255.706H266.615V261.052ZM312.799 255.706L293.575 300.418H282.073L289.309 284.704L276.889 255.706H288.661L295.033 272.878L301.189 255.706H312.799Z" fill="white"/>
<path fill-rule="evenodd" clip-rule="evenodd" d="M375.8 163.931L340.052 163.693V112.769C340.052 105.208 337.118 98.3615 332.378 93.3689C327.639 88.4239 321.139 85.3333 313.962 85.3333H76.27C69.0932 85.3333 62.5934 88.4239 57.854 93.4165C53.1597 98.3615 50.1807 105.256 50.1807 112.816C50.1807 116.953 53.3403 120.234 57.2221 120.234C61.149 120.234 64.3086 116.905 64.3086 112.816C64.3086 109.345 65.6627 106.207 67.8293 103.925C69.9959 101.642 72.975 100.216 76.27 100.216H313.962C317.212 100.216 320.236 101.642 322.403 103.925C324.57 106.207 325.924 109.345 325.924 112.816V345.803H286.068C282.141 345.803 278.981 349.131 278.981 353.268C278.981 357.405 282.141 360.733 286.068 360.733H332.965C336.892 360.733 340.052 357.405 340.052 353.268V344.804H368.578C371.828 267.348 477.404 256.65 488.147 344.804H511.347C517.306 269.298 481.918 239.913 428.069 233.304C424.187 215.568 416.83 199.116 408.48 182.855C398.504 163.503 396.202 164.263 375.8 163.931ZM-13.5079 202.92C-17.8862 202.92 -21.452 199.592 -21.452 195.503C-21.452 191.413 -17.8862 188.038 -13.5079 188.038H63.5864C67.9647 188.038 71.5306 191.366 71.5306 195.503C71.5306 199.639 67.9647 202.92 63.5864 202.92H-13.5079ZM-35.3543 243.194C-45.1039 243.194 -45.1039 228.216 -35.3543 228.216H52.9792C58.847 228.216 63.5413 231.592 63.5413 235.681C63.5413 239.818 58.8019 243.146 52.9792 243.146H-35.3543V243.194ZM140.545 345.755C144.472 345.755 147.632 349.084 147.632 353.173C147.632 357.309 144.472 360.638 140.545 360.638H76.27C69.1383 360.638 62.6386 357.357 57.854 352.174C53.1597 346.991 50.1807 339.954 50.1807 332.442V277.761C50.1807 273.624 53.3403 270.296 57.2221 270.296C61.149 270.296 64.3086 273.624 64.3086 277.761V332.442C64.3086 336.008 65.7079 339.431 67.9647 341.904C70.1313 344.281 73.0201 345.755 76.1797 345.755H140.545ZM212.359 304.531C185.953 304.531 164.513 327.116 164.513 354.932C164.513 382.748 185.953 405.333 212.359 405.333C238.764 405.333 260.204 382.748 260.204 354.932C260.204 327.116 238.809 304.531 212.359 304.531ZM212.359 335.58C202.203 335.58 193.943 344.234 193.943 354.98C193.943 365.678 202.158 374.379 212.359 374.379C222.514 374.379 230.775 365.726 230.775 354.98C230.729 344.234 222.514 335.58 212.359 335.58ZM428.205 297.113C401.799 297.113 380.359 319.699 380.359 347.515C380.359 375.33 401.799 397.916 428.205 397.916C454.61 397.916 476.05 375.33 476.05 347.515C476.05 319.699 454.655 297.113 428.205 297.113ZM409.834 347.562C409.834 358.26 418.049 366.962 428.25 366.962C438.406 366.962 446.666 358.308 446.666 347.562C446.666 336.816 438.451 328.162 428.25 328.162C418.049 328.162 409.834 336.864 409.834 347.562ZM379.231 185.47L357.655 185.042V233.351H403.334C397.692 216.091 389.387 200.305 379.231 185.47Z" fill="#FC8181"/>
<path fill-rule="evenodd" clip-rule="evenodd" d="M15.3494 162.599C10.7373 162.599 6.98095 159.27 6.98095 155.181C6.98095 151.044 10.7373 147.716 15.3494 147.716H85.8636C90.4757 147.716 94.232 151.044 94.232 155.181C94.232 159.318 90.4757 162.599 85.8636 162.599H15.3494Z" fill="black"/>
</g>
<defs>
<clipPath id="clip0_157_90">
<rect width="512" height="512" fill="white"/>
</clipPath>
</defs>
</svg>
